# NIGHTFALL shared stage kit v01
mtllib nf_stage_kit_v01.mtl
o NF_DISPLAY_PLINTH
v -0.75000 0.00000 -0.62500
v 0.75000 0.00000 -0.62500
v 0.75000 0.20000 -0.62500
v -0.75000 0.20000 -0.62500
v -0.75000 0.00000 0.62500
v 0.75000 0.00000 0.62500
v 0.75000 0.20000 0.62500
v -0.75000 0.20000 0.62500
v -0.60000 0.19500 -0.50000
v 0.60000 0.19500 -0.50000
v 0.60000 1.24500 -0.50000
v -0.60000 1.24500 -0.50000
v -0.60000 0.19500 0.50000
v 0.60000 0.19500 0.50000
v 0.60000 1.24500 0.50000
v -0.60000 1.24500 0.50000
v -0.71000 1.24000 -0.59000
v 0.71000 1.24000 -0.59000
v 0.71000 1.38000 -0.59000
v -0.71000 1.38000 -0.59000
v -0.71000 1.24000 0.59000
v 0.71000 1.24000 0.59000
v 0.71000 1.38000 0.59000
v -0.71000 1.38000 0.59000
v -0.41000 1.38000 -0.35000
v 0.41000 1.38000 -0.35000
v 0.41000 1.46000 -0.35000
v -0.41000 1.46000 -0.35000
v -0.41000 1.38000 0.35000
v 0.41000 1.38000 0.35000
v 0.41000 1.46000 0.35000
v -0.41000 1.46000 0.35000
g bottom_step
usemtl NF_CHARCOAL
f 1 2 3 4
f 5 8 7 6
f 1 5 6 2
f 2 6 7 3
f 3 7 8 4
f 5 1 4 8
g body
usemtl NF_IVORY
f 9 10 11 12
f 13 16 15 14
f 9 13 14 10
f 10 14 15 11
f 11 15 16 12
f 13 9 12 16
g top_step
usemtl NF_BRASS
f 17 18 19 20
f 21 24 23 22
f 17 21 22 18
f 18 22 23 19
f 19 23 24 20
f 21 17 20 24
g evidence_slot
usemtl NF_GLASS
f 25 26 27 28
f 29 32 31 30
f 25 29 30 26
f 26 30 31 27
f 27 31 32 28
f 29 25 28 32
