# NIGHTFALL shared stage kit v01
mtllib nf_stage_kit_v01.mtl
o NF_DOOR_FRAME
v -1.16000 0.00000 -0.15000
v -0.94000 0.00000 -0.15000
v -0.94000 3.10000 -0.15000
v -1.16000 3.10000 -0.15000
v -1.16000 0.00000 0.15000
v -0.94000 0.00000 0.15000
v -0.94000 3.10000 0.15000
v -1.16000 3.10000 0.15000
v 0.94000 0.00000 -0.15000
v 1.16000 0.00000 -0.15000
v 1.16000 3.10000 -0.15000
v 0.94000 3.10000 -0.15000
v 0.94000 0.00000 0.15000
v 1.16000 0.00000 0.15000
v 1.16000 3.10000 0.15000
v 0.94000 3.10000 0.15000
v -1.16000 2.89000 -0.15000
v 1.16000 2.89000 -0.15000
v 1.16000 3.11000 -0.15000
v -1.16000 3.11000 -0.15000
v -1.16000 2.89000 0.15000
v 1.16000 2.89000 0.15000
v 1.16000 3.11000 0.15000
v -1.16000 3.11000 0.15000
v -1.16000 0.00000 -0.17000
v 1.16000 0.00000 -0.17000
v 1.16000 0.16000 -0.17000
v -1.16000 0.16000 -0.17000
v -1.16000 0.00000 0.17000
v 1.16000 0.00000 0.17000
v 1.16000 0.16000 0.17000
v -1.16000 0.16000 0.17000
v -0.89000 0.18000 0.07000
v 0.89000 0.18000 0.07000
v 0.89000 2.86000 0.07000
v -0.89000 2.86000 0.07000
v -0.89000 0.18000 0.15000
v 0.89000 0.18000 0.15000
v 0.89000 2.86000 0.15000
v -0.89000 2.86000 0.15000
v 0.63000 1.37000 0.18000
v 0.71000 1.37000 0.18000
v 0.71000 1.67000 0.18000
v 0.63000 1.67000 0.18000
v 0.63000 1.37000 0.26000
v 0.71000 1.37000 0.26000
v 0.71000 1.67000 0.26000
v 0.63000 1.67000 0.26000
g left_jamb
usemtl NF_IRON
f 1 2 3 4
f 5 8 7 6
f 1 5 6 2
f 2 6 7 3
f 3 7 8 4
f 5 1 4 8
g right_jamb
f 9 10 11 12
f 13 16 15 14
f 9 13 14 10
f 10 14 15 11
f 11 15 16 12
f 13 9 12 16
g head
usemtl NF_BRASS
f 17 18 19 20
f 21 24 23 22
f 17 21 22 18
f 18 22 23 19
f 19 23 24 20
f 21 17 20 24
g threshold
usemtl NF_CHARCOAL
f 25 26 27 28
f 29 32 31 30
f 25 29 30 26
f 26 30 31 27
f 27 31 32 28
f 29 25 28 32
g door_leaf
usemtl NF_IVORY
f 33 34 35 36
f 37 40 39 38
f 33 37 38 34
f 34 38 39 35
f 35 39 40 36
f 37 33 36 40
g handle
usemtl NF_BRASS
f 41 42 43 44
f 45 48 47 46
f 41 45 46 42
f 42 46 47 43
f 43 47 48 44
f 45 41 44 48
