# NIGHTFALL shared stage kit v01
mtllib nf_stage_kit_v01.mtl
o NF_FLOOR_MODULE
v -2.00000 -0.11000 -1.10000
v 2.00000 -0.11000 -1.10000
v 2.00000 0.11000 -1.10000
v -2.00000 0.11000 -1.10000
v -2.00000 -0.11000 1.10000
v 2.00000 -0.11000 1.10000
v 2.00000 0.11000 1.10000
v -2.00000 0.11000 1.10000
v -2.04000 -0.15000 -1.22000
v 2.04000 -0.15000 -1.22000
v 2.04000 0.19000 -1.22000
v -2.04000 0.19000 -1.22000
v -2.04000 -0.15000 -1.10000
v 2.04000 -0.15000 -1.10000
v 2.04000 0.19000 -1.10000
v -2.04000 0.19000 -1.10000
v -2.04000 -0.15000 1.10000
v 2.04000 -0.15000 1.10000
v 2.04000 0.19000 1.10000
v -2.04000 0.19000 1.10000
v -2.04000 -0.15000 1.22000
v 2.04000 -0.15000 1.22000
v 2.04000 0.19000 1.22000
v -2.04000 0.19000 1.22000
g floor_slab
usemtl NF_CHARCOAL
f 1 2 3 4
f 5 8 7 6
f 1 5 6 2
f 2 6 7 3
f 3 7 8 4
f 5 1 4 8
g front_trim
usemtl NF_BRASS
f 9 10 11 12
f 13 16 15 14
f 9 13 14 10
f 10 14 15 11
f 11 15 16 12
f 13 9 12 16
g rear_trim
usemtl NF_IRON
f 17 18 19 20
f 21 24 23 22
f 17 21 22 18
f 18 22 23 19
f 19 23 24 20
f 21 17 20 24
