# NIGHTFALL shared stage kit v01
mtllib nf_stage_kit_v01.mtl
o NF_PIPE_RUN
v -1.90000 0.97000 -0.08000
v 1.90000 0.97000 -0.08000
v 1.90000 1.13000 -0.08000
v -1.90000 1.13000 -0.08000
v -1.90000 0.97000 0.08000
v 1.90000 0.97000 0.08000
v 1.90000 1.13000 0.08000
v -1.90000 1.13000 0.08000
v -1.73000 -0.02500 -0.08000
v -1.57000 -0.02500 -0.08000
v -1.57000 1.12500 -0.08000
v -1.73000 1.12500 -0.08000
v -1.73000 -0.02500 0.08000
v -1.57000 -0.02500 0.08000
v -1.57000 1.12500 0.08000
v -1.73000 1.12500 0.08000
v 1.57000 -0.02500 -0.08000
v 1.73000 -0.02500 -0.08000
v 1.73000 1.12500 -0.08000
v 1.57000 1.12500 -0.08000
v 1.57000 -0.02500 0.08000
v 1.73000 -0.02500 0.08000
v 1.73000 1.12500 0.08000
v 1.57000 1.12500 0.08000
v -1.71000 0.90000 -0.15000
v -1.59000 0.90000 -0.15000
v -1.59000 1.20000 -0.15000
v -1.71000 1.20000 -0.15000
v -1.71000 0.90000 0.15000
v -1.59000 0.90000 0.15000
v -1.59000 1.20000 0.15000
v -1.71000 1.20000 0.15000
v -0.61000 0.90000 -0.15000
v -0.49000 0.90000 -0.15000
v -0.49000 1.20000 -0.15000
v -0.61000 1.20000 -0.15000
v -0.61000 0.90000 0.15000
v -0.49000 0.90000 0.15000
v -0.49000 1.20000 0.15000
v -0.61000 1.20000 0.15000
v 0.49000 0.90000 -0.15000
v 0.61000 0.90000 -0.15000
v 0.61000 1.20000 -0.15000
v 0.49000 1.20000 -0.15000
v 0.49000 0.90000 0.15000
v 0.61000 0.90000 0.15000
v 0.61000 1.20000 0.15000
v 0.49000 1.20000 0.15000
v 1.59000 0.90000 -0.15000
v 1.71000 0.90000 -0.15000
v 1.71000 1.20000 -0.15000
v 1.59000 1.20000 -0.15000
v 1.59000 0.90000 0.15000
v 1.71000 0.90000 0.15000
v 1.71000 1.20000 0.15000
v 1.59000 1.20000 0.15000
v -0.27000 0.91000 0.08000
v 0.27000 0.91000 0.08000
v 0.27000 1.19000 0.08000
v -0.27000 1.19000 0.08000
v -0.27000 0.91000 0.14000
v 0.27000 0.91000 0.14000
v 0.27000 1.19000 0.14000
v -0.27000 1.19000 0.14000
g main_pipe
usemtl NF_BRASS
f 1 2 3 4
f 5 8 7 6
f 1 5 6 2
f 2 6 7 3
f 3 7 8 4
f 5 1 4 8
g left_drop
f 9 10 11 12
f 13 16 15 14
f 9 13 14 10
f 10 14 15 11
f 11 15 16 12
f 13 9 12 16
g right_drop
f 17 18 19 20
f 21 24 23 22
f 17 21 22 18
f 18 22 23 19
f 19 23 24 20
f 21 17 20 24
g clamp_-1.65
usemtl NF_IRON
f 25 26 27 28
f 29 32 31 30
f 25 29 30 26
f 26 30 31 27
f 27 31 32 28
f 29 25 28 32
g clamp_-0.55
f 33 34 35 36
f 37 40 39 38
f 33 37 38 34
f 34 38 39 35
f 35 39 40 36
f 37 33 36 40
g clamp_0.55
f 41 42 43 44
f 45 48 47 46
f 41 45 46 42
f 42 46 47 43
f 43 47 48 44
f 45 41 44 48
g clamp_1.65
f 49 50 51 52
f 53 56 55 54
f 49 53 54 50
f 50 54 55 51
f 51 55 56 52
f 53 49 52 56
g signal_window
usemtl NF_SIGNAL
f 57 58 59 60
f 61 64 63 62
f 57 61 62 58
f 58 62 63 59
f 59 63 64 60
f 61 57 60 64
