# NIGHTFALL shared stage kit v01
mtllib nf_stage_kit_v01.mtl
o NF_WORLD_FRAME
v -1.45000 0.00000 -0.45000
v 1.45000 0.00000 -0.45000
v 1.45000 0.24000 -0.45000
v -1.45000 0.24000 -0.45000
v -1.45000 0.00000 0.45000
v 1.45000 0.00000 0.45000
v 1.45000 0.24000 0.45000
v -1.45000 0.24000 0.45000
v -1.36000 0.10000 -0.14000
v -1.14000 0.10000 -0.14000
v -1.14000 3.00000 -0.14000
v -1.36000 3.00000 -0.14000
v -1.36000 0.10000 0.14000
v -1.14000 0.10000 0.14000
v -1.14000 3.00000 0.14000
v -1.36000 3.00000 0.14000
v 1.14000 0.10000 -0.14000
v 1.36000 0.10000 -0.14000
v 1.36000 3.00000 -0.14000
v 1.14000 3.00000 -0.14000
v 1.14000 0.10000 0.14000
v 1.36000 0.10000 0.14000
v 1.36000 3.00000 0.14000
v 1.14000 3.00000 0.14000
v -1.36000 2.79000 -0.14000
v 1.36000 2.79000 -0.14000
v 1.36000 3.01000 -0.14000
v -1.36000 3.01000 -0.14000
v -1.36000 2.79000 0.14000
v 1.36000 2.79000 0.14000
v 1.36000 3.01000 0.14000
v -1.36000 3.01000 0.14000
v -1.36000 0.17000 -0.14000
v 1.36000 0.17000 -0.14000
v 1.36000 0.39000 -0.14000
v -1.36000 0.39000 -0.14000
v -1.36000 0.17000 0.14000
v 1.36000 0.17000 0.14000
v 1.36000 0.39000 0.14000
v -1.36000 0.39000 0.14000
v -1.10000 0.43000 0.07250
v 1.10000 0.43000 0.07250
v 1.10000 2.73000 0.07250
v -1.10000 2.73000 0.07250
v -1.10000 0.43000 0.10750
v 1.10000 0.43000 0.10750
v 1.10000 2.73000 0.10750
v -1.10000 2.73000 0.10750
g base
usemtl NF_CHARCOAL
f 1 2 3 4
f 5 8 7 6
f 1 5 6 2
f 2 6 7 3
f 3 7 8 4
f 5 1 4 8
g left_frame
usemtl NF_BRASS
f 9 10 11 12
f 13 16 15 14
f 9 13 14 10
f 10 14 15 11
f 11 15 16 12
f 13 9 12 16
g right_frame
f 17 18 19 20
f 21 24 23 22
f 17 21 22 18
f 18 22 23 19
f 19 23 24 20
f 21 17 20 24
g top_frame
f 25 26 27 28
f 29 32 31 30
f 25 29 30 26
f 26 30 31 27
f 27 31 32 28
f 29 25 28 32
g bottom_frame
f 33 34 35 36
f 37 40 39 38
f 33 37 38 34
f 34 38 39 35
f 35 39 40 36
f 37 33 36 40
g replaceable_plane
usemtl NF_GLASS
f 41 42 43 44
f 45 48 47 46
f 41 45 46 42
f 42 46 47 43
f 43 47 48 44
f 45 41 44 48
